<?xml version="1.0" encoding="UTF-8" standalone="no"?>
<svg
   viewBox="0 0 384 512"
   version="1.1"
   id="svg8"
   xmlns="http://www.w3.org/2000/svg"
   xmlns:svg="http://www.w3.org/2000/svg">
  <defs
     id="defs12" />
  <!-- Font Awesome Free 5.15.4 by @fontawesome - https://fontawesome.com License - https://fontawesome.com/license/free (Icons: CC BY 4.0, Fonts: SIL OFL 1.1, Code: MIT License) -->
  <g
     id="g6" />
  <g
     id="g11797"
     transform="matrix(26.861997,0,0,26.861997,-135.9647,-9.846544)"
     style="stroke:#ffffff;stroke-width:0.96791;fill:#000000;fill-opacity:1">
    <path
       id="rect7956"
       style="color:#000000;fill:#000000;stroke:none;stroke-linejoin:round;-inkscape-stroke:none;opacity:0.99;fill-opacity:1"
       d="M 12.634766,8.0742188 7.8339844,9.21875 a 0.39076558,0.39076558 0 0 0 -0.039063,0.042969 0.39076558,0.39076558 0 0 0 -0.1835938,0.203125 0.39076558,0.39076558 0 0 0 -0.058594,0.1074218 0.39076558,0.39076558 0 0 0 -0.017578,0.03125 l 0.056641,4.7343752 a 0.39076558,0.39076558 0 0 0 0.1757812,0.320312 L 12.144531,17.5625 a 0.39076558,0.39076558 0 0 0 0.0039,0 0.39076558,0.39076558 0 0 0 0.08008,0.0059 0.39076558,0.39076558 0 0 0 0.308593,0.01367 0.39076558,0.39076558 0 0 0 0.0078,0 l 3.630859,-1.925781 a 0.39076558,0.39076558 0 0 0 0.203125,-0.291016 l 0.697266,-4.957031 a 0.39076558,0.39076558 0 0 0 -0.02148,-0.101562 0.39076558,0.39076558 0 0 0 -0.0293,-0.126953 0.39076558,0.39076558 0 0 0 -0.0957,-0.103516 A 0.39076558,0.39076558 0 0 0 16.859375,10 L 12.894531,8.1015625 a 0.39076558,0.39076558 0 0 0 -0.259765,-0.027344 z m 0.04687,0.7910156 3.101562,1.4863286 -3.044922,1.451171 h -0.002 L 9,9.7460938 Z m -4.3574222,1.4003906 3.9941402,2.197266 -0.298828,4.078125 -3.6484372,-2.419922 z m 7.8769532,0.753906 -0.568359,4.039063 -2.832032,1.501953 0.298828,-4.064453 z M 19.356889,5.1301448 V 4.9031293 c 0,-0.2344569 -0.09307,-0.461472 -0.260591,-0.6289406 L 15.451744,0.6270689 C 15.284221,0.45959914 15.057134,0.36656039 14.818879,0.36656039 H 14.591793 V 5.1301448 Z M 13.400519,0.36656039 V 5.427868 c 0,0.4912449 0.402056,0.8931722 0.893455,0.8931722 h 5.062915 V 18.527724 c 0,0.494966 -0.398332,0.893172 -0.893455,0.893172 H 5.9550561 c -0.4951232,0 -0.8934555,-0.398206 -0.8934555,-0.893172 V 1.2597324 c 0,-0.49496614 0.3983323,-0.89317201 0.8934555,-0.89317201 z" />
  </g>
</svg>
